<?xml version="1.0" standalone="no"?><!DOCTYPE svg PUBLIC "-//W3C//DTD SVG 1.1//EN" "http://www.w3.org/Graphics/SVG/1.1/DTD/svg11.dtd"><svg t="1621059585360" class="icon" viewBox="0 0 1024 1024" version="1.1" xmlns="http://www.w3.org/2000/svg" p-id="2163" xmlns:xlink="http://www.w3.org/1999/xlink" width="100" height="100"><defs><style type="text/css"></style></defs><path d="M511.3 959.4C264 959.4 63.2 759 63.2 511.4S263.7 63.3 511.3 63.3s448.1 200.5 448.1 448.1-200.8 448-448.1 448z m0-836C296.9 123.4 123 297.2 123 511.7S296.8 900 511.3 900s388.3-173.8 388.3-388.3-173.9-388.3-388.3-388.3z" p-id="2164"></path><path d="M588.7 529.2c-40.3 23.5-53.3 61.6-51.6 98.6 0 12.6-10.2 22.8-22.8 22.8h-11.8c-12.9 0-23.2-10.6-22.8-23.5 0.5-15.8 2.1-36.6 6.7-52.7 7.4-24.5 22.7-57.6 51.6-78.1 50.7-33.6 79.6-68.1 76.2-103.7-5-50.7-40-77.5-93.7-80.9-50.5-1.4-86.1 21-106.7 67.2-8.5 19.1-31 27.5-49.9 18.5-13.1-6.3-19.2-21.6-14-35.2l0.8-2.1c27.9-71.8 87.9-106.7 179.9-103.7 91 5 142 56.7 145.8 130.2 5 52.3-21.9 100.7-87.7 142.6z m-86.4 239c-17.9 0-32.5-15.7-32.5-33.7v1c0-17.9 14.5-32.5 32.5-32.5 17.9 0 32.5 14.5 32.5 32.5v-1c-0.1 17.9-14.6 33.7-32.5 33.7z" p-id="2165"></path></svg>