<?xml version="1.0" standalone="no"?><!DOCTYPE svg PUBLIC "-//W3C//DTD SVG 1.1//EN" "http://www.w3.org/Graphics/SVG/1.1/DTD/svg11.dtd"><svg t="1621311342178" class="icon" viewBox="0 0 1024 1024" version="1.1" xmlns="http://www.w3.org/2000/svg" p-id="4632" xmlns:xlink="http://www.w3.org/1999/xlink" width="100" height="100"><defs><style type="text/css"></style></defs><path d="M200.347826 422.956522c48.973913 0 89.043478 40.069565 89.043478 89.043478s-40.069565 89.043478-89.043478 89.043478-89.043478-40.069565-89.043478-89.043478 40.069565-89.043478 89.043478-89.043478z m311.652174 0c48.973913 0 89.043478 40.069565 89.043478 89.043478s-40.069565 89.043478-89.043478 89.043478-89.043478-40.069565-89.043478-89.043478 40.069565-89.043478 89.043478-89.043478z m311.652174 0c48.973913 0 89.043478 40.069565 89.043478 89.043478s-40.069565 89.043478-89.043478 89.043478-89.043478-40.069565-89.043478-89.043478 40.069565-89.043478 89.043478-89.043478z" p-id="4633"></path></svg>