<?xml version="1.0" standalone="no"?><!DOCTYPE svg PUBLIC "-//W3C//DTD SVG 1.1//EN" "http://www.w3.org/Graphics/SVG/1.1/DTD/svg11.dtd"><svg t="1621059459397" class="icon" viewBox="0 0 1024 1024" version="1.1" xmlns="http://www.w3.org/2000/svg" p-id="2025" xmlns:xlink="http://www.w3.org/1999/xlink" width="100" height="100"><defs><style type="text/css"></style></defs><path d="M618.4 143.1L440.6 888.2c-1.3 5-3.8 8.7-7.6 11.2s-7.6 3-11.5 1.4L401 896c-4.2-1.5-7.4-4.5-9.6-8.9s-2.5-9.1-1.2-14.1l182.9-741c1.3-5 3.8-8.7 7.6-11.2s7.6-3 11.5-1.4l15.4 0.8c4.2 1.5 7.4 4.5 9.6 8.9 2.2 4.4 2.5 9 1.2 14zM955.4 525.8L727 793.3c-3.3 3.8-7 5.8-11.3 5.8s-8-1.9-11.3-5.8l-11.4-8.7c-3.3-3.8-4.9-8.2-4.9-13.2s1.6-9.4 4.9-13.2l208.6-245.6L695 267c-3.3-3.8-4.9-8.2-4.9-13.2 0-4.7 1.4-8.9 4.4-12.6 0.3-0.4 0.7-0.8 1.1-1.2l10.9-9.2c3.3-3.8 9-6.8 13.3-6.8s9 3.9 12.3 7.8l223.4 267.5c3.3 3.8 4.9 8.2 4.9 13.2s-1.7 9.4-5 13.3zM81 525.8c-3.3-3.9-5-8.3-5-13.2 0-5 1.6-9.4 4.9-13.2l223.4-267.5c3.3-3.9 8-7.8 12.3-7.8s10 3 13.3 6.8l10.9 9.2c0.4 0.4 0.8 0.7 1.1 1.2 3 3.7 4.4 7.9 4.4 12.6 0 5-1.6 9.4-4.9 13.2L134.8 512.6l208.6 245.6c3.3 3.8 4.9 8.2 4.9 13.2s-1.6 9.4-4.9 13.2l-11.4 8.7c-3.3 3.9-7 5.8-11.3 5.8s-8-2-11.3-5.8L81 525.8z" p-id="2026"></path></svg>