<?xml version="1.0" standalone="no"?><!DOCTYPE svg PUBLIC "-//W3C//DTD SVG 1.1//EN" "http://www.w3.org/Graphics/SVG/1.1/DTD/svg11.dtd"><svg t="1621059182365" class="icon" viewBox="0 0 1024 1024" version="1.1" xmlns="http://www.w3.org/2000/svg" p-id="1055" xmlns:xlink="http://www.w3.org/1999/xlink" width="100" height="100"><defs><style type="text/css"></style></defs><path d="M918.9 335.1l-187-65.4c-5.1-1.8-7.8-7.4-6-12.5l25.4-72.6 13.7-39.1c2.5-7.1-1.2-14.8-8.3-17.2l-39.1-13.7-83.3-29.2-40.8-14.3c-6.1-2.1-12.8 1.1-15 7.2l-14.3 40.8-24.4 69.8c-2.3 6.6-9.6 10.1-16.2 7.8L339 132.1c-3.5-1.2-7.5-0.9-10.5 1.2-1.9 1.3-3.5 3.3-4.3 5.6L309.8 180 281 262.5l-14.3 40.8c-2.1 6.1 1.1 12.9 7.2 15l33.5 11.7c-33.3 86-92.7 251-92.7 251-1 2.8-2.1 5.5-3.4 8.2-28.3 61.3-86.1 122.9-99.4 136.7-3.1 3.2-5.9 6.8-8.2 10.6-8.3 13.9-5.6 23.4-0.9 29.9 5.9 8.1 14.3 14 23.7 17.3l463.1 162.1 5.8 0.4c5.8 0.4 19.9-2.5 26.1-7.9 6.2-5.4 53.5-37.1 114.7-156.9 24.8-52.5 71.5-191 96.2-267.6l17.8 6.2c8.8 3.1 18.5-1.6 21.6-10.4l12.6-35.9 28.8-82.4 13.8-39.5c2.4-6.8-1.2-14.3-8.1-16.7zM686.3 768.6c-26 48.3-58.7 95.3-88 123-1.6 2.2-4.6 3.1-7.2 2.2l-66.8-26.4c-1.6-0.6-2.1-2.6-0.9-3.8 22.3-23.4 65.1-83.6 82.7-129.6 7.1-17 15.6-39.4-3.4-47.9-16.8-7.5-27.7 2.4-41.8 31.9-31.2 68.6-59.8 101.1-89.8 127.5-1.7 1.5-4.1 2-6.3 1.4l-57-20.6c-1.3-0.4-1.8-2-0.8-3 15.7-16.4 74.6-97.6 84.9-131.6 7.1-17 7.4-34.5-9.6-41.6s-28.5 4.6-35.6 21.6c-46.4 88.2-68.1 101.7-96.2 133.5-1.5 1.8-4 2.4-6.2 1.5l-58.7-22.4c-1.2-0.5-1.5-2-0.6-2.9 31.3-32.7 67-69.4 87.9-119.5 4-10.7 11.4-46-14.1-50-11.4 0.1-16.9 8.2-24.6 18.8-1.4 1.9-2.6 4-3.5 6.1C308 687.1 262 740.3 238 761.9a6.81 6.81 0 0 1-7.1 1.2l-63.5-24.2c-1.7-0.7-2.2-3-1-4.4 31.6-34.2 79.5-100.8 94.3-134l96.2-252.2 425.6 148.4c-16.3 63.2-69 221.4-96.2 271.9z m140.1-305c-51.6-18-495.8-176.8-495.8-176.8-4.8-1.7-7.4-7-5.7-11.8l26.8-77.2c2.2-6.3 9.1-9.7 15.5-7.5l184.7 62.3c6.8 2.4 14.3-1.2 16.7-8.1L608 137c1.7-4.8 7-7.4 11.8-5.7l76.8 25.7c5.4 1.9 8.2 7.8 6.3 13.1l-35.6 110.8c-2.8 7.9 1.4 16.5 9.3 19.2l184.9 63.7c5.3 1.9 8.1 7.7 6.3 13l-26.6 79.6c-2 6.2-8.7 9.4-14.8 7.2z" p-id="1056"></path></svg>