<?xml version="1.0" standalone="no"?><!DOCTYPE svg PUBLIC "-//W3C//DTD SVG 1.1//EN" "http://www.w3.org/Graphics/SVG/1.1/DTD/svg11.dtd"><svg t="1621059206377" class="icon" viewBox="0 0 1024 1024" version="1.1" xmlns="http://www.w3.org/2000/svg" p-id="1334" xmlns:xlink="http://www.w3.org/1999/xlink" width="100" height="100"><defs><style type="text/css"></style></defs><path d="M897 879.6v-544c0-4.3-1.6-8.1-4.8-11.3-3.2-3.2-6.9-4.8-11.2-4.7H337c-4.3 0-8.1 1.6-11.2 4.7-3.2 3.2-4.8 6.9-4.8 11.3v544c0 4.3 1.6 8.1 4.8 11.2s6.9 4.8 11.2 4.8h544c4.3 0 8.1-1.6 11.2-4.8 3.2-3.2 4.8-6.9 4.8-11.2z m64-544v544c0 22-7.8 40.8-23.5 56.5-15.7 15.7-34.5 23.5-56.5 23.5H337c-22 0-40.8-7.8-56.5-23.5S257 901.6 257 879.6v-544c0-22 7.8-40.8 23.5-56.5 15.7-15.7 34.5-23.5 56.5-23.5h544c22 0 40.8 7.8 56.5 23.5 15.7 15.6 23.5 34.5 23.5 56.5z m-192-192v64.7c0 8.4-6.8 15.3-15.3 15.3h-33.5c-8.4 0-15.3-6.8-15.3-15.3v-64.7c0-4.3-1.6-8.1-4.8-11.2-3.2-3.2-6.9-4.8-11.2-4.8H145c-4.3 0-8.1 1.6-11.2 4.8-3.2 3.2-4.8 6.9-4.8 11.2v544c0 4.3 1.6 8.1 4.8 11.2 3.2 3.2 6.9 4.7 11.2 4.8h65.7c7.9 0 14.3 6.4 14.3 14.3v35.4c0 7.9-6.4 14.3-14.3 14.3H145c-22 0-40.8-7.8-56.5-23.5S65 709.6 65 687.6v-544c0-22 7.8-40.8 23.5-56.5S123 63.6 145 63.6h544c22 0 40.8 7.8 56.5 23.5 15.7 15.6 23.5 34.5 23.5 56.5z" p-id="1335"></path></svg>