<?xml version="1.0" standalone="no"?><!DOCTYPE svg PUBLIC "-//W3C//DTD SVG 1.1//EN" "http://www.w3.org/Graphics/SVG/1.1/DTD/svg11.dtd"><svg t="1622170875549" class="icon" viewBox="0 0 1024 1024" version="1.1" xmlns="http://www.w3.org/2000/svg" p-id="6633" xmlns:xlink="http://www.w3.org/1999/xlink" width="100" height="100"><defs><style type="text/css"></style></defs><path d="M951.556445 315.892933v-7.346348a33.466693 33.466693 0 0 0 0-7.346347L681.374118 11.427651a13.060173 13.060173 0 0 0-7.346348-4.897565L669.130206 0H247.939629a35.915476 35.915476 0 0 0-35.915476 35.915476v808.91446a35.915476 35.915476 0 0 0 35.915476 35.915476h666.068819a35.099215 35.099215 0 0 0 35.915476-35.915476V321.606758s1.632522-3.265043 1.632521-5.713825z m-261.203458-188.556247L835.64741 285.691283H690.352987z m191.005029 682.394036h-595.87039v-734.634728h333.85067v246.510764a35.915476 35.915476 0 0 0 35.915476 35.915476h226.104244z" p-id="6634"></path><path d="M607.094384 952.576363H143.458245V416.293012a35.915476 35.915476 0 0 0-35.915475-35.099215 35.915476 35.915476 0 0 0-35.915476 35.099215v571.382566a35.915476 35.915476 0 0 0 35.915476 35.915475h499.551614a35.915476 35.915476 0 1 0 0-71.01469zM393.234052 452.208488H487.920306a35.915476 35.915476 0 1 0 0-71.014691H393.234052a35.915476 35.915476 0 1 0 0 71.014691zM357.318577 607.298041a35.915476 35.915476 0 0 0 35.915475 35.915476h285.691283a35.915476 35.915476 0 0 0 0-71.830951h-285.691283a35.915476 35.915476 0 0 0-35.915475 35.915475z" p-id="6635"></path></svg>