<?xml version="1.0" standalone="no"?><!DOCTYPE svg PUBLIC "-//W3C//DTD SVG 1.1//EN" "http://www.w3.org/Graphics/SVG/1.1/DTD/svg11.dtd"><svg t="1621059596561" class="icon" viewBox="0 0 1024 1024" version="1.1" xmlns="http://www.w3.org/2000/svg" p-id="2302" xmlns:xlink="http://www.w3.org/1999/xlink" width="100" height="100"><defs><style type="text/css"></style></defs><path d="M943.5 481.1L795.4 327.3 732.8 390l62.7 62.7H586.1c-10.2 0-18.6-8.3-18.6-18.6V230.5l62.7 62.7 62.7-62.7L539.1 76.7c-17.1-17.1-45.6-17.1-62.7 0L328.3 230.5l62.7 62.7 62.7-68.4v209.3c0 10.2-8.3 18.6-18.6 18.6H225.8l62.7-62.7-57-62.7L77.7 481.1c-5.7 5.7-11.4 17.1-11.4 28.5 0 11.4 5.7 22.8 11.4 28.5l153.8 153.8 62.7-62.7-68.4-62.7h209.3c10.2 0 18.6 8.3 18.6 18.6v209.3L391 731.7l-62.7 62.7 153.8 153.8c5.7 5.7 17.1 11.4 28.5 11.4 11.4 0 22.8-5.7 28.5-11.4l153.8-153.8-62.7-62.7-62.7 62.7V585.1c0-10.2 8.3-18.6 18.6-18.6h209.3l-62.7 62.7 62.7 62.7 153.8-153.8c11.4-17.1 11.4-39.9-5.7-57z" p-id="2303"></path></svg>