<?xml version="1.0" standalone="no"?><!DOCTYPE svg PUBLIC "-//W3C//DTD SVG 1.1//EN" "http://www.w3.org/Graphics/SVG/1.1/DTD/svg11.dtd"><svg t="1621059233979" class="icon" viewBox="0 0 1024 1024" version="1.1" xmlns="http://www.w3.org/2000/svg" p-id="1609" xmlns:xlink="http://www.w3.org/1999/xlink" width="100" height="100"><defs><style type="text/css"></style></defs><path d="M487.8 459.9v299.2c0 20.7 16 37.6 35.8 37.6 19.8 0 35.8-16.8 35.8-37.6V459.9c0-20.7-16-37.6-35.8-37.6-19.8 0.1-35.8 16.9-35.8 37.6zM631.7 459.9v299.2c0 20.7 16 37.6 35.8 37.6 19.8 0 35.8-16.8 35.8-37.6V459.9c0-20.7-16-37.6-35.8-37.6-19.7 0.1-35.8 16.9-35.8 37.6zM343.8 459.9v299.2c0 20.7 16 37.6 35.8 37.6 19.8 0 35.8-16.8 35.8-37.6V459.9c0-20.7-16-37.6-35.8-37.6s-35.8 16.9-35.8 37.6z" p-id="1610"></path><path d="M903.7 212.8c-1.2-9.7-6.2-18.5-13.9-24.5-7.6-5.9-17.3-8.4-26.9-7l-143 20.6-13.4-97.6c-1.5-11.1-7.4-21.2-16.3-28-18.6-14.3-46.6-12.8-61.8-10.6L342 107c-52.5 7.6-67.8 35.5-64.6 59l13.4 97.7-143 20.6c-13.1 1.7-24.3 10.3-29.1 22.6-5 12.4-3.1 26.5 5.1 37.1 8 10.4 21.1 15.6 34.1 13.5l51.8-7.5c-3 5.3-4.6 11.3-4.8 17.4v518c0 40.9 32.4 74.1 72.2 74.1h505.4c39.8 0 72.1-33.2 72.2-74.1v-518c0.2-20.2-15.9-36.8-36.1-37-19.9 0-36.1 16.6-36.1 37v518.1H277.3v-518c0-9.5-3.6-18.7-10.2-25.6L873 254.5c20-3.1 33.7-21.7 30.7-41.7z m-265.6 0.9L372.5 252c-5.5 0.8-10.6-3-11.4-8.6l-7.3-53.4c-0.7-5.5 3.1-10.5 8.5-11.3l266.1-38.3c5.5-0.8 10.7 3.1 11.4 8.6l7.2 52.8c0.9 5.8-3.1 11.1-8.9 11.9z" p-id="1611"></path></svg>