<?xml version="1.0" standalone="no"?><!DOCTYPE svg PUBLIC "-//W3C//DTD SVG 1.1//EN" "http://www.w3.org/Graphics/SVG/1.1/DTD/svg11.dtd"><svg t="1621059295775" class="icon" viewBox="0 0 1024 1024" version="1.1" xmlns="http://www.w3.org/2000/svg" p-id="1748" xmlns:xlink="http://www.w3.org/1999/xlink" width="100" height="100"><defs><style type="text/css"></style></defs><path d="M888 343.9h-34c-4.7 0-8.5-3.8-8.5-8.5v-35.6c0-31.8-25.8-57.6-57.6-57.6H739.7c-0.5-0.1-1.2-0.2-2-0.2H564.9c-15.4 0-27.9-12.5-27.9-27.9V207c0-1.8-0.3-3.7-0.8-5.8 1.5-8.4-1.5-14.8-7.8-29.1-13.3-29.9-42.9-49.2-75.6-49.2H136c-39.9 0-72.3 32.4-72.3 72.3v631c0 39.9 32.4 72.3 72.3 72.3h752c39.9 0 72.3-21.1 72.3-72.3v-410c0.1-54.6-32.3-72.3-72.3-72.3zM277 656V416.2c0-12.6 10.3-22.9 22.9-22.9h519c0.5 0.1 1.2 0.2 2 0.2s1.4-0.1 2-0.2h65.3c12.6 0 22.9 10.3 22.9 22.9v410.1c0 12.6-10.3 22.9-22.9 22.9H293.9c-9.9 0-17.9-8.5-17-18.4 0.2-2.1 0.3-4.2 0.3-6.3V657.9c0-0.7-0.1-1.4-0.2-1.9z m-49.3 29.4V834c0 8.4-6.8 15.2-15.2 15.2h-84.3c-8.3 0-15.1-6.8-15.1-15.1V195.3c0-12.6 10.3-22.9 22.9-22.9h319.9c15.1 0 29.6 12.2 31.5 27.2 0 0.4 0.1 0.8 0.2 1.2 0.2 1.4 0.3 2.8 0.2 4.1-0.1 0.7-0.1 1.4-0.1 2V219c0 39.9 32.4 72.3 72.3 72.3h120.2c0.5 0.1 1.2 0.2 2 0.2h91.1c12.6 0 22.9 10.3 22.9 22.9v18.8c0 5.9-4.8 10.7-10.7 10.7H299.9c-39.9 0-72.3 32.4-72.3 72.3v267.2c0 0.8 0.1 1.5 0.1 2z" p-id="1749"></path><path d="M501.4 623.2c4.8 4.6 11 7.1 17.4 7.1 6.8 0 12.9-2.6 17.4-7.2l34.6-34.6c3-3 8.1-0.9 8.1 3.4V730c0 14.6 11.9 26.4 26.5 25.3 12.8-0.9 22.9-11.6 22.9-24.6V594.5c0-5.1 6.1-7.6 9.7-4l32.6 32.6 0.1 0.1c4.8 4.6 11 7.1 17.4 7.1 6.8 0 12.8-2.5 17.5-7.2 9.6-9.6 9.6-25.2 0-34.9l-83.3-83.1c-21.9-21.9-17.2-20.7-36.3-1.6l-84.8 84.8c-4.7 4.7-7.2 10.9-7.2 17.4 0.1 6.5 2.7 12.7 7.4 17.5z" p-id="1750"></path></svg>