<?xml version="1.0" standalone="no"?><!DOCTYPE svg PUBLIC "-//W3C//DTD SVG 1.1//EN" "http://www.w3.org/Graphics/SVG/1.1/DTD/svg11.dtd"><svg t="1622170703030" class="icon" viewBox="0 0 1024 1024" version="1.1" xmlns="http://www.w3.org/2000/svg" p-id="2653" xmlns:xlink="http://www.w3.org/1999/xlink" width="100" height="100"><defs><style type="text/css"></style></defs><path d="M512 921.6l-29.4912 17.2032a34.133333 34.133333 0 0 0 58.9824 0L512 921.6z m273.066667-819.2l29.627733 16.930133A34.133333 34.133333 0 0 0 785.066667 68.266667v34.133333z m-273.066667 477.866667l-29.627733 16.930133a34.133333 34.133333 0 0 0 59.255466 0L512 580.266667z m-273.066667-477.866667V68.266667a34.133333 34.133333 0 0 0-29.627733 51.063466L238.933333 102.4z m204.8 0l30.5152-15.291733L464.896 68.266667H443.733333v34.133333z m68.266667 136.533333l-30.5152 15.291734a34.133333 34.133333 0 0 0 61.0304 0L512 238.933333z m68.266667-136.533333V68.266667h-21.0944l-9.4208 18.8416 30.5152 15.291733z m-575.624534 17.2032l477.866667 819.2 58.9824-34.4064-477.866667-819.2-58.9824 34.4064z m536.849067 819.2l477.866667-819.2-58.9824-34.4064-477.866667 819.2 58.9824 34.4064z m213.947733-853.333333l-273.066666 477.866666 59.255466 33.860267 273.066667-477.866667-59.255467-33.860266z m-213.8112 477.866666l-273.066666-477.866666-59.255467 33.860266 273.066667 477.866667 59.255466-33.860267zM238.933333 136.533333h204.8V68.266667h-204.8v68.266666z m174.2848-18.8416l68.266667 136.533334 61.0304-30.583467-68.266667-136.533333-61.0304 30.583466z m129.297067 136.533334l68.266667-136.533334-61.0304-30.583466-68.266667 136.533333 61.0304 30.583467zM580.266667 136.533333h204.8V68.266667h-204.8v68.266666z" p-id="2654"></path></svg>