<?xml version="1.0" standalone="no"?><!DOCTYPE svg PUBLIC "-//W3C//DTD SVG 1.1//EN" "http://www.w3.org/Graphics/SVG/1.1/DTD/svg11.dtd"><svg t="1620973211340" class="icon" viewBox="0 0 1024 1024" version="1.1" xmlns="http://www.w3.org/2000/svg" p-id="2761" xmlns:xlink="http://www.w3.org/1999/xlink" width="100" height="100"><defs><style type="text/css"></style></defs><path d="M840 304H696a48 48 0 0 0-48 48v320a48 48 0 0 0 48 48h144a48 48 0 0 0 48-48V352a48 48 0 0 0-48-48z m96 368c0 53.016-42.984 96-96 96H696c-53.016 0-96-42.984-96-96v-40.008H55.12a47.12 47.12 0 0 1-47.088-45.352L8 584.88V439.12A47.12 47.12 0 0 1 55.12 392H600v-40c0-52.2 41.672-94.672 93.56-95.968L696 256h144c53.016 0 96 42.984 96 96v40h32.88a47.12 47.12 0 0 1 47.088 45.352l0.032 1.76v145.76a47.12 47.12 0 0 1-47.12 47.12H936z" p-id="2762"></path></svg>