<?xml version="1.0" standalone="no"?><!DOCTYPE svg PUBLIC "-//W3C//DTD SVG 1.1//EN" "http://www.w3.org/Graphics/SVG/1.1/DTD/svg11.dtd"><svg t="1620973543033" class="icon" viewBox="0 0 1157 1024" version="1.1" xmlns="http://www.w3.org/2000/svg" p-id="3264" xmlns:xlink="http://www.w3.org/1999/xlink" width="112.98828125" height="100"><defs><style type="text/css"></style></defs><path d="M0.089 541.57c0-124.378 82.237-233.716 192.153-266.112C253.074 115.123 403.708 0 579.93 0c177.646 0 324.186 115.078 384.973 275.458 113.432 33.153 192.198 141.066 192.198 266.113 0 153.971-119.573 279.15-270.919 279.15-28.347 0-53.934-26.61-53.934-56.07 0-33.82 25.587-56.115 53.934-56.115 91.226 0 163.806-74.093 163.806-166.876 0-49.618-21.449-95.676-56.649-125.136l-9.656-9.434a49.173 49.173 0 0 0-12.46-10.057c-2.76-3.604-9.034-3.604-12.46-6.497h-3.427c-2.76-3.56-6.23-3.56-9.034-6.453h-3.47c-2.76 0-6.23-3.56-9.657-3.56-2.76 0-6.23 0-6.23-2.892h-9.034c-3.471 0-6.23 0-9.701-3.605H882.71c-2.759-10.813-6.23-18.69-6.23-29.503-2.759 0-2.759-3.56-2.759-6.453-3.427-6.497-3.427-12.905-6.23-19.447 0-3.56-3.427-3.56-3.427-7.164-2.759-6.497-6.23-12.905-9.656-19.403v-6.497c-2.804-6.452-9.078-12.905-12.46-19.446-53.178-92.116-151.39-154.64-261.975-154.64-113.342 0-211.466 62.568-264.688 154.64l-9.034 19.446c0 2.18-1.424 2.18-2.091 4.317l-1.38 2.18-9.701 19.403v7.164l-8.945 19.447v6.453c-3.47 10.769-6.942 18.69-6.942 29.459h-28.302c-2.759 3.604-6.23 3.604-8.944 3.604h-6.23c-2.76 2.18-4.14 2.893-4.896 2.893a1.246 1.246 0 0 1-2.047 0c-2.759 0-6.23 3.56-9.033 3.56h-6.23c-3.427 2.937-6.23 2.937-9.657 6.497h-3.426c-2.76 2.893-6.23 2.893-9.079 6.497h-3.426c-2.76 3.56-6.23 6.453-9.701 10.057-6.23 2.848-8.945 6.497-12.416 9.39-35.244 29.504-53.222 75.562-53.222 125.18 0 92.783 72.58 166.876 160.38 166.876 32.485 0 56.693 22.295 56.693 56.07 0 29.505-24.208 56.071-56.694 56.071C123.133 820.722 0.09 695.542 0.09 541.66z m362.857 186.991c0-16.554 6.23-28.791 12.46-39.56l163.762-186.902c10.413-10.814 24.92-16.555 40.806-16.555 15.932 0 28.347 5.786 41.475 16.51l160.38 186.991a55.982 55.982 0 0 1-40.763 94.964c-15.931 0-27.68-8.678-38.048-19.447l-69.109-78.41v281.955c0 33.82-24.208 55.403-53.935 55.403-31.105 0-53.222-21.582-53.222-55.403v-281.91l-69.065 78.365c-10.368 10.814-25.543 19.447-41.43 19.447-28.391 0-53.311-25.9-53.311-55.403v-0.045z" p-id="3265"></path></svg>