<?xml version="1.0" standalone="no"?><!DOCTYPE svg PUBLIC "-//W3C//DTD SVG 1.1//EN" "http://www.w3.org/Graphics/SVG/1.1/DTD/svg11.dtd"><svg t="1620973416314" class="icon" viewBox="0 0 1097 1024" version="1.1" xmlns="http://www.w3.org/2000/svg" p-id="5035" xmlns:xlink="http://www.w3.org/1999/xlink" width="107.12890625" height="100"><defs><style type="text/css"></style></defs><path d="M987.428571 73.142857h-100.937142V36.571429a36.571429 36.571429 0 0 0-36.571429-36.571429h-73.142857a36.571429 36.571429 0 0 0-36.571429 36.571429V73.142857H356.937143V36.571429a36.571429 36.571429 0 0 0-36.571429-36.571429h-73.142857a36.571429 36.571429 0 0 0-36.571428 36.571429V73.142857H109.714286A109.714286 109.714286 0 0 0 0 182.857143v731.428571A109.714286 109.714286 0 0 0 109.714286 1024h877.714285a109.714286 109.714286 0 0 0 109.714286-109.714286v-731.428571A109.714286 109.714286 0 0 0 987.428571 73.142857z m-877.714285 73.142857h877.714285a36.571429 36.571429 0 0 1 36.571429 36.571429v81.92H73.142857V182.857143a36.571429 36.571429 0 0 1 36.571429-36.571429z m877.714285 804.571429h-877.714285a36.571429 36.571429 0 0 1-36.571429-36.571429V337.92h950.857143v576.365714a36.571429 36.571429 0 0 1-36.571429 36.571429z" p-id="5036"></path><path d="M210.651429 462.994286m36.571428 0l73.142857 0q36.571429 0 36.571429 36.571428l0 73.142857q0 36.571429-36.571429 36.571429l-73.142857 0q-36.571429 0-36.571428-36.571429l0-73.142857q0-36.571429 36.571428-36.571428Z" p-id="5037"></path><path d="M475.428571 462.994286m36.571429 0l73.142857 0q36.571429 0 36.571429 36.571428l0 73.142857q0 36.571429-36.571429 36.571429l-73.142857 0q-36.571429 0-36.571429-36.571429l0-73.142857q0-36.571429 36.571429-36.571428Z" p-id="5038"></path><path d="M740.937143 462.994286m36.571428 0l73.142858 0q36.571429 0 36.571428 36.571428l0 73.142857q0 36.571429-36.571428 36.571429l-73.142858 0q-36.571429 0-36.571428-36.571429l0-73.142857q0-36.571429 36.571428-36.571428Z" p-id="5039"></path><path d="M210.651429 689.005714m36.571428 0l73.142857 0q36.571429 0 36.571429 36.571429l0 73.142857q0 36.571429-36.571429 36.571429l-73.142857 0q-36.571429 0-36.571428-36.571429l0-73.142857q0-36.571429 36.571428-36.571429Z" p-id="5040"></path><path d="M475.428571 689.005714m36.571429 0l73.142857 0q36.571429 0 36.571429 36.571429l0 73.142857q0 36.571429-36.571429 36.571429l-73.142857 0q-36.571429 0-36.571429-36.571429l0-73.142857q0-36.571429 36.571429-36.571429Z" p-id="5041"></path><path d="M740.937143 689.005714m36.571428 0l73.142858 0q36.571429 0 36.571428 36.571429l0 73.142857q0 36.571429-36.571428 36.571429l-73.142858 0q-36.571429 0-36.571428-36.571429l0-73.142857q0-36.571429 36.571428-36.571429Z" p-id="5042"></path></svg>