<?xml version="1.0" standalone="no"?><!DOCTYPE svg PUBLIC "-//W3C//DTD SVG 1.1//EN" "http://www.w3.org/Graphics/SVG/1.1/DTD/svg11.dtd"><svg t="1621318895243" class="icon" viewBox="0 0 1024 1024" version="1.1" xmlns="http://www.w3.org/2000/svg" p-id="3410" xmlns:xlink="http://www.w3.org/1999/xlink" width="100" height="100"><defs><style type="text/css"></style></defs><path d="M896 128H128a128 128 0 0 0-128 128v512a128 128 0 0 0 128 128h768a128 128 0 0 0 128-128V256a128 128 0 0 0-128-128z m-256 85.333333v597.333334H384V213.333333h256zM85.333333 768V256a42.666667 42.666667 0 0 1 42.666667-42.666667h170.666667v597.333334H128a42.666667 42.666667 0 0 1-42.666667-42.666667z m853.333334 0a42.666667 42.666667 0 0 1-42.666667 42.666667h-170.666667V213.333333h170.666667a42.666667 42.666667 0 0 1 42.666667 42.666667v512z" p-id="3411"></path></svg>