<?xml version="1.0" standalone="no"?><!DOCTYPE svg PUBLIC "-//W3C//DTD SVG 1.1//EN" "http://www.w3.org/Graphics/SVG/1.1/DTD/svg11.dtd"><svg t="1620973765079" class="icon" viewBox="0 0 1024 1024" version="1.1" xmlns="http://www.w3.org/2000/svg" p-id="6274" xmlns:xlink="http://www.w3.org/1999/xlink" width="100" height="100"><defs><style type="text/css"></style></defs><path d="M516.4032 93.2864a423.1168 423.1168 0 0 1 30.208 845.1584v-72.0384a351.3856 351.3856 0 1 0-380.8256-372.736l-71.8848 0.0512a423.168 423.168 0 0 1 422.5024-400.4352z" p-id="6275"></path><path d="M550.4 297.2672a33.9968 33.9968 0 1 0-67.9936 0v264.448c0 11.1104 5.376 21.504 14.4896 27.8528l151.0912 105.7792a33.9968 33.9968 0 1 0 39.0144-55.7056l-136.6016-95.6416V297.2672zM93.2864 516.5056v-30.3616h56.6784v26.368l-56.6784 3.9936z m364.032 414.208a481.6896 481.6896 0 0 1-56.6272-15.3088l18.1248-53.5552c16.4352 5.4784 33.1776 9.9328 50.176 13.312l-11.6224 55.552z m-111.616-37.9904a463.8208 463.8208 0 0 1-51.2512-29.696l31.4368-47.104c14.336 9.6256 29.3376 18.3296 44.8 26.112l-24.9344 50.688z m-97.9968-66.56a418.4576 418.4576 0 0 1-41.1136-41.1136l42.496-37.376c11.4688 12.9536 23.7056 25.2928 36.5568 36.864l-37.9392 41.6256zM169.7792 738.304a463.8208 463.8208 0 0 1-29.7472-51.2512l50.688-25.2416c7.68 15.5136 16.384 30.5152 26.112 44.8l-47.0528 31.744z m-52.4288-105.984a448.8192 448.8192 0 0 1-15.2576-56.6272l56.6272-11.0592c3.4304 16.896 7.8848 33.536 13.312 49.8688l-54.6816 17.8688z m429.2608 307.2h-30.0544l3.4304-56.6784h26.624v56.6272z" p-id="6276"></path><path d="M93.2864 486.144h113.3056v45.3632H93.2864v-45.3632z m423.1168 339.968h40.448v113.3568h-40.448v-113.3056z" p-id="6277"></path></svg>