<?xml version="1.0" standalone="no"?><!DOCTYPE svg PUBLIC "-//W3C//DTD SVG 1.1//EN" "http://www.w3.org/Graphics/SVG/1.1/DTD/svg11.dtd"><svg t="1621319204076" class="icon" viewBox="0 0 1643 1024" version="1.1" xmlns="http://www.w3.org/2000/svg" p-id="7694" xmlns:xlink="http://www.w3.org/1999/xlink" width="160.44921875" height="100"><defs><style type="text/css"></style></defs><path d="M1464.140351 1024H179.649123A179.649123 179.649123 0 0 1 0 844.350877V179.649123A179.649123 179.649123 0 0 1 179.649123 0h1284.491228a179.649123 179.649123 0 0 1 179.649123 179.649123v664.701754a179.649123 179.649123 0 0 1-179.649123 179.649123zM179.649123 143.719298a36.378947 36.378947 0 0 0-35.929825 35.929825v664.701754a36.378947 36.378947 0 0 0 35.929825 35.929825h1284.491228a36.378947 36.378947 0 0 0 35.929824-35.929825V179.649123a36.378947 36.378947 0 0 0-35.929824-35.929825z" p-id="7695"></path><path d="M300.463158 293.187368h190.967017c105.004912 0 157.821754 41.768421 157.821755 97.639299 0 46.259649-35.929825 76.440702-78.237193 85.962105 37.007719 8.26386 96.29193 35.929825 96.29193 96.112281 0 76.8-77.159298 114.526316-172.10386 114.526315H300.463158z m177.583158 166.98386c83.89614 0 116.143158-23.983158 116.143158-66.380351 0-37.097544-34.672281-65.661754-102.669474-65.661754H353.010526v132.042105zM353.010526 652.485614h139.317895c67.458246 0 119.73614-24.701754 119.73614-78.686316 0-46.798596-39.882105-78.686316-137.701052-78.686316H353.010526z" p-id="7696"></path><path d="M495.202807 709.614035H300.463158a22.45614 22.45614 0 0 1-22.45614-22.45614V293.187368a22.45614 22.45614 0 0 1 22.45614-22.45614h190.967017c132.940351 0 180.277895 62.068772 180.277895 120.095439a103.837193 103.837193 0 0 1-42.93614 84.435087c33.953684 19.761404 61.44 51.918596 61.44 97.639299C689.762807 655.719298 613.41193 709.614035 495.202807 709.614035zM323.368421 664.701754h11.407719a22.276491 22.276491 0 0 1-3.772631-12.485614V495.112982a22.366316 22.366316 0 0 1 8.353684-17.425964 22.366316 22.366316 0 0 1-8.353684-17.964913V328.129123a22.276491 22.276491 0 0 1 3.772631-12.485614H323.368421z m296.421053-142.282105a91.17193 91.17193 0 0 1-11.138246 115.604211 75.093333 75.093333 0 0 0 37.097544-65.392281 62.877193 62.877193 0 0 0-26.857544-49.942456z m-243.424562 107.789474h116.77193c29.192982 0 97.28-5.479298 97.28-56.230176 0-46.439298-62.877193-56.230175-115.244912-56.230175h-98.807018z m159.977544-152.701755c4.670877 0.898246 8.982456 1.886316 13.38386 2.874386a24.522105 24.522105 0 0 1 0-3.682807 20.300351 20.300351 0 0 1 0-2.335438c-5.299649 1.706667-9.701053 2.425263-14.282105 3.323509zM375.466667 437.715088h102.579649c93.687018 0 93.687018-30.809825 93.687017-43.924211 0-26.947368-30.72-43.205614-80.213333-43.205614H375.466667z m214.590877-102.040702a77.338947 77.338947 0 0 1 26.947368 58.116491 80.842105 80.842105 0 0 1-10.060351 41.229474 57.667368 57.667368 0 0 0 20.210527-44.193684c-0.359298-23.354386-13.473684-42.217544-37.097544-55.152281z" p-id="7697"></path><path d="M755.424561 403.222456h67.997193v-86.411228h50.21193v86.411228h86.950176v32.785965h-86.950176v176.415439c0 29.911579 8.982456 46.259649 44.373334 46.259649a183.870877 183.870877 0 0 0 35.929824-2.964211v30.450527a199.590175 199.590175 0 0 1-51.289824 5.209824c-53.086316 0-79.674386-20.390175-79.674386-66.649824v-188.631579H755.424561z" p-id="7698"></path><path d="M903.09614 713.835789c-84.435088 0-102.130526-48.415439-102.130526-89.105964V458.105263H755.424561a22.45614 22.45614 0 0 1-22.45614-22.45614v-32.426667a22.45614 22.45614 0 0 1 22.45614-22.45614h45.541053v-63.955088a22.45614 22.45614 0 0 1 22.45614-22.45614h50.21193a22.366316 22.366316 0 0 1 22.456141 22.45614v63.955088h64.494035a22.45614 22.45614 0 0 1 22.45614 22.45614v32.785965a22.45614 22.45614 0 0 1-22.45614 22.45614h-64.494035v153.959299c0 21.108772 2.515088 23.803509 21.917193 23.803508a164.468772 164.468772 0 0 0 31.528421-2.425263 22.366316 22.366316 0 0 1 26.947368 21.917193v30.450527a22.45614 22.45614 0 0 1-16.168421 21.557894 208.93193 208.93193 0 0 1-57.218246 6.10807z m-64.40421-294.175438a22.186667 22.186667 0 0 1 7.185965 16.34807v188.631579c0 15.809123 2.155789 31.258947 22.007017 39.073684a71.859649 71.859649 0 0 1-16.707368-51.379649V436.008421a22.186667 22.186667 0 0 1 7.185965-16.34807 22.545965 22.545965 0 0 1-7.185965-16.437895v-63.955088h-5.299649v63.955088a22.545965 22.545965 0 0 1-7.185965 16.437895z" p-id="7699"></path><path d="M1072.595088 474.902456c0-24.881404 0-49.22386-0.718597-71.859649h49.044211a402.683509 402.683509 0 0 1 1.97614 50.661053c15.898947-26.947368 46.798596-57.397895 122.430877-57.397895 68.805614 0 126.562807 30.270877 126.562807 107.789474v183.331929h-50.301754V509.215439c0-47.06807-25.330526-78.147368-87.399298-78.147369-81.381053 0.089825-111.382456 49.134035-111.382456 108.867369v147.491929h-50.301755z" p-id="7700"></path><path d="M1371.890526 709.614035h-50.301754a22.45614 22.45614 0 0 1-22.45614-22.45614V509.215439c0-25.959298-7.365614-55.691228-64.943158-55.691228-58.924912 0-88.836491 29.103158-88.836492 86.411228v147.491929A22.45614 22.45614 0 0 1 1122.807018 709.614035h-50.301755a22.45614 22.45614 0 0 1-22.45614-22.45614V474.902456c0-25.150877 0-48.864561-0.718597-70.871579a22.545965 22.545965 0 0 1 22.456141-23.264561h49.04421a22.45614 22.45614 0 0 1 22.096842 17.964912 3.952281 3.952281 0 0 0 0 0.898246c26.049123-17.425965 59.912982-26.049123 102.130527-26.049123 93.327719 0 149.018947 48.505263 149.018947 129.886316v183.960701a22.45614 22.45614 0 0 1-22.186667 22.186667z m-27.845614-44.912281h5.389474V503.915789c0-34.582456-13.743158-55.691228-33.324912-68.266666 17.964912 17.156491 27.935439 42.037895 27.935438 73.566316z m-248.993684 0h5.389474V539.935439a151.534035 151.534035 0 0 1 13.473684-65.482106 22.276491 22.276491 0 0 1-13.38386-21.917193v-26.947368h-5.299649v49.22386z" p-id="7701"></path></svg>