<?xml version="1.0" standalone="no"?><!DOCTYPE svg PUBLIC "-//W3C//DTD SVG 1.1//EN" "http://www.w3.org/Graphics/SVG/1.1/DTD/svg11.dtd"><svg t="1620973525738" class="icon" viewBox="0 0 1024 1024" version="1.1" xmlns="http://www.w3.org/2000/svg" p-id="2479" xmlns:xlink="http://www.w3.org/1999/xlink" width="100" height="100"><defs><style type="text/css"></style></defs><path d="M632.3 388.3c0 30.4 24.8 55.2 55.2 55.2 30.4 0 55.2-24.8 55.2-55.2s-24.8-55.2-55.2-55.2c-30.4 0-55.2 24.7-55.2 55.2zM288.3 388.3c0 30.4 24.8 55.2 55.2 55.2 30.4 0 55.2-24.8 55.2-55.2s-24.8-55.2-55.2-55.2c-30.5 0-55.2 24.7-55.2 55.2zM460.3 339c0 30.4 24.8 55.2 55.2 55.2 30.4 0 55.2-24.8 55.2-55.2 0-30.4-24.8-55.2-55.2-55.2-30.4 0-55.2 24.8-55.2 55.2zM165.1 511c0 30.4 24.8 55.2 55.2 55.2 14.8 0 28.6-5.7 39-16 10.5-10.4 16.2-24.3 16.2-39.2 0-30.4-24.8-55.2-55.2-55.2-30.5 0-55.2 24.8-55.2 55.2zM950.3 283c-4.7-4.7-10.8-7.3-17.3-7.3-17.2 0-34.4 16.6-39.4 21.9L558.1 623c-9.7 9.7-37.1 52.8-56.9 84.4-1.6 2.5-2.9 4.7-3.2 5.1l-21.2 34 33.8-21.1 0.1-0.1c0.4-0.3 3-1.9 6-3.7 31.7-19.8 74.9-47.1 84.8-56.2l0.1-0.1 335.6-326.1c6.2-6.2 14.4-15.8 18.3-26.6 5.3-14.8 0.1-24.3-5.2-29.6z" p-id="2480"></path><path d="M878.8 470.7c-17.7 0-32 14.3-32 32v1.4c-11.4 73-52.5 146.6-111.6 201.3-31.3 29-66.5 51.7-104.7 67.6-41.1 17.1-84.8 25.8-129.6 25.8-36 0-73.7-7-103.5-19.2-34.1-13.4-45.6-33.5-47.2-40.1l-0.2-0.7c-1.4-5.3-2.9-10.7-4.4-16.5-4.6-18.4-9.9-34.3-20.8-51.9-19.4-32.3-47.7-39.1-67.9-39.1-6.8 0-14.4 0.9-23.3 2.6h-0.2c-11.9 2.9-24.1 4.4-35.3 4.4-11.4 0-29.6-4-44.6-12.9-12-7.2-26.5-20.2-27-41.7-1.5-52.7 8.2-101.9 28.9-146.4 19-40.7 47.1-77.3 83.6-108.8 33.8-29.1 74-53.2 119.5-71.6 43-17.4 88.8-29 136-34.3 11.5-1.3 24.9-2 41.1-2 50.9 0 107.6 9.7 147.7 25.2 8.3 3.2 13.3 5.7 34.3 16l3.9 1.9c19.1 9.6 38.4 20.8 56.5 38.2 1.3 1.6 2.8 3 4.4 4.3 5.5 4.5 12.6 7.2 20.2 7.2 17.7 0 32-14.3 32-32 0-9.8-4.4-18.6-11.4-24.4v-0.1l-3.5-3.3c-21.2-19.9-43.8-36-67.3-47.8-25.1-12.3-31.6-15.3-43.2-19.8-47.8-18.5-114.2-30-173.1-30-15.5 0-32 0.9-49 2.6-114.9 13.2-219.5 58.8-294.5 128.3C106.7 365.2 62.9 470.3 66 590.7c1.1 35.6 15.8 65.2 42.6 85.5 23.4 17.6 54.2 26.8 89.1 26.8 16.7 0 33.7-2.1 50.7-6.2l0.2-0.1c2.7-0.8 5.1-0.8 7.9-0.8 6.4 0 11.1 6.6 20.9 43.8 0.8 3.4 1.7 6.7 2.5 9.9 0.9 3.2 1.7 6.4 2.5 9.6l0.1 0.3c9.6 33.1 40.2 60.9 88.5 80.3 38.2 15.3 85.4 24.1 129.5 24.1 53.8 0 106-10.1 155.2-30.1 46.9-19.3 89.2-46.3 125.5-80.1 36.2-33.6 65.7-72.2 87.7-114.8 21.6-41.2 35.1-84.7 41.2-129.2 0.5-2.3 0.8-4.7 0.8-7.2-0.1-17.5-14.4-31.8-32.1-31.8z" p-id="2481"></path></svg>