<?xml version="1.0" standalone="no"?><!DOCTYPE svg PUBLIC "-//W3C//DTD SVG 1.1//EN" "http://www.w3.org/Graphics/SVG/1.1/DTD/svg11.dtd"><svg t="1620973096689" class="icon" viewBox="0 0 1024 1024" version="1.1" xmlns="http://www.w3.org/2000/svg" p-id="4463" xmlns:xlink="http://www.w3.org/1999/xlink" width="100" height="100"><defs><style type="text/css"></style></defs><path d="M512 894.4c-211.2 0-382.4-168-382.4-379.2S300.8 134.4 512 134.4s382.4 171.2 382.4 382.4S723.2 894.4 512 894.4z m0-715.2c-185.6 0-337.6 152-337.6 337.6S328 849.6 512 849.6s337.6-148.8 337.6-332.8c0-185.6-153.6-337.6-337.6-337.6z m25.6 449.6c-6.4 6.4-14.4 11.2-22.4 9.6-8 1.6-14.4-4.8-20.8-9.6L312 444.8c-9.6-9.6-9.6-24 0-33.6s24-9.6 33.6 0l169.6 174.4 171.2-174.4c9.6-9.6 24-9.6 33.6 0s9.6 24 0 33.6L537.6 628.8z" p-id="4464"></path></svg>