<?xml version="1.0" standalone="no"?><!DOCTYPE svg PUBLIC "-//W3C//DTD SVG 1.1//EN" "http://www.w3.org/Graphics/SVG/1.1/DTD/svg11.dtd"><svg t="1620973503830" class="icon" viewBox="0 0 1024 1024" version="1.1" xmlns="http://www.w3.org/2000/svg" p-id="1501" xmlns:xlink="http://www.w3.org/1999/xlink" width="100" height="100"><defs><style type="text/css"></style></defs><path d="M1020.311273 410.484364c-8.843636-25.134545-31.650909-43.566545-59.019637-47.569455l-266.426181-39.005091-115.805091-236.637091A74.286545 74.286545 0 0 0 512.128 46.545455c-28.672 0-54.737455 15.918545-66.932364 40.727272L329.390545 323.956364l-266.472727 39.005091A73.309091 73.309091 0 0 0 3.991273 410.484364a68.701091 68.701091 0 0 0 17.175272 71.959272l195.258182 191.813819-45.288727 266.146909a69.585455 69.585455 0 0 0 30.347636 69.352727 76.706909 76.706909 0 0 0 78.382546 4.142545L512.128 890.833455l232.308364 123.066181a76.613818 76.613818 0 0 0 78.382545-4.142545c23.133091-15.685818 34.909091-42.542545 30.301091-69.352727l-45.335273-266.146909 195.351273-191.813819a68.887273 68.887273 0 0 0 17.221818-71.959272z m-265.355637 214.295272a69.073455 69.073455 0 0 0-20.061091 60.928l45.288728 266.100364-232.308364-122.973091a76.520727 76.520727 0 0 0-71.540364 0l-232.261818 122.973091 45.288728-266.100364a68.980364 68.980364 0 0 0-20.014546-60.928L73.995636 432.965818l266.426182-39.051636a73.681455 73.681455 0 0 0 55.808-39.936L512.128 117.434182l115.851636 236.590545c10.472727 21.410909 31.418182 36.305455 55.714909 39.936l266.519273 39.051637-195.258182 191.767272z" p-id="1502"></path></svg>