<?xml version="1.0" standalone="no"?><!DOCTYPE svg PUBLIC "-//W3C//DTD SVG 1.1//EN" "http://www.w3.org/Graphics/SVG/1.1/DTD/svg11.dtd"><svg t="1620973402380" class="icon" viewBox="0 0 1024 1024" version="1.1" xmlns="http://www.w3.org/2000/svg" p-id="3569" xmlns:xlink="http://www.w3.org/1999/xlink" width="100" height="100"><defs><style type="text/css"></style></defs><path d="M511.943718 63.961754c-247.465115 0-448.765817 201.301725-448.765817 448.76684S264.478604 961.494411 511.943718 961.494411s448.76684-201.300702 448.76684-448.765817S759.408833 63.961754 511.943718 63.961754z m0 833.133951c-211.945133 0-384.368134-172.452677-384.368134-384.368134 0-211.945133 172.424025-384.368134 384.368134-384.368135 211.914434 0 384.368134 172.424025 384.368135 384.368135 0 211.915457-172.452677 384.368134-384.368135 384.368134z m160.240541-384.368134H511.943718V288.412712c0-17.794271-14.262842-32.184003-32.058136-32.184003-17.785062 0-32.048927 14.427594-32.048927 32.184003v256.371972a31.958876 31.958876 0 0 0 32.048927 32.04995H672.183236c17.793248 0 32.184003-14.263865 32.184003-32.04995 0-17.794271-14.389732-32.057113-32.18298-32.057113z" p-id="3570"></path></svg>