<?xml version="1.0" standalone="no"?><!DOCTYPE svg PUBLIC "-//W3C//DTD SVG 1.1//EN" "http://www.w3.org/Graphics/SVG/1.1/DTD/svg11.dtd"><svg t="1620973461763" class="icon" viewBox="0 0 1024 1024" version="1.1" xmlns="http://www.w3.org/2000/svg" p-id="6126" xmlns:xlink="http://www.w3.org/1999/xlink" width="100" height="100"><defs><style type="text/css"></style></defs><path d="M716.8 38.4a38.4 38.4 0 0 1 38.0416 33.1776l0.3584 5.2224v38.4H921.6a89.6 89.6 0 0 1 89.2928 82.2272L1011.2 204.8v665.6A89.6 89.6 0 0 1 921.6 960H102.4A89.6 89.6 0 0 1 12.8 870.4V204.8c0-49.4592 40.1408-89.6 89.6-89.6h166.4V76.8a38.4 38.4 0 0 1 76.4416-5.2224l0.3584 5.2224v38.4h332.8V76.8A38.4 38.4 0 0 1 716.8 38.4z m217.6 344.2176H89.6V870.4a12.8 12.8 0 0 0 9.8816 12.4416L102.4 883.2h819.2a12.8 12.8 0 0 0 12.8-12.8V382.6176z m-371.6096 364.6976a38.4 38.4 0 0 1 5.1712 76.4416l-5.1712 0.3584h-358.4a38.4 38.4 0 0 1-5.2224-76.4416l5.2224-0.3584h358.4z m256 0a38.4 38.4 0 0 1 5.1712 76.4416l-5.1712 0.3584h-102.4a38.4 38.4 0 0 1-5.2224-76.4416l5.2224-0.3584h102.4z m0-153.6a38.4 38.4 0 0 1 5.1712 76.4416l-5.1712 0.3584h-614.4a38.4 38.4 0 0 1-5.2224-76.4416l5.2224-0.3584h614.4z m0-153.6a38.4 38.4 0 0 1 5.1712 76.4416l-5.1712 0.3584h-358.4a38.4 38.4 0 0 1-5.2224-76.4416l5.2224-0.3584h358.4z m-512 0a38.4 38.4 0 0 1 5.1712 76.4416l-5.1712 0.3584h-102.4a38.4 38.4 0 0 1-5.2224-76.4416l5.2224-0.3584h102.4zM678.4 192h-332.8v38.4a38.4 38.4 0 0 1-76.4416 5.2224L268.8 230.4v-38.4H102.4a12.8 12.8 0 0 0-12.4416 9.8816L89.6 204.8v101.0176h844.8V204.8a12.8 12.8 0 0 0-9.8816-12.4416L921.6 192h-166.4v38.4a38.4 38.4 0 0 1-76.4416 5.2224L678.4 230.4v-38.4z" fill="#585A5C" p-id="6127"></path></svg>